<svg width="72" height="14" viewBox="0 0 72 14" fill="none" xmlns="http://www.w3.org/2000/svg">
<path d="M0 0H72V14H0V0Z" fill="white" fill-opacity="0.01"/>
<path d="M17.5889 2.71082H10.04V4.70057H12.68V11.2716H14.9403V4.70057H17.5889V2.71082Z" fill="#0D0D0D"/>
<path d="M50.4675 2.71082H48.2977V11.276H50.4675V2.71082Z" fill="#0D0D0D"/>
<path d="M36.4352 11.2979V2.71082H34.287V7.86309L34.2353 7.80159L30.2667 2.71082H28.2437V11.2979H30.3918V6.14127L34.5329 11.2979H36.4352Z" fill="#0D0D0D"/>
<path d="M46.4601 11.2979V2.71082H44.3162V7.86309L44.2645 7.80159L40.2916 2.71082H38.2728V11.2979H40.421V6.14127L44.5621 11.2979H46.4601Z" fill="#0D0D0D"/>
<path d="M60.4966 11.2979V2.71082H58.3527V7.86309L58.301 7.80159L54.3324 2.71082H52.3093V11.2979H54.4575V6.14127L58.5986 11.2979H60.4966Z" fill="#0D0D0D"/>
<path d="M22.6272 11.4604C24.4734 11.4604 26.6776 10.7708 26.6776 7.48095V2.71082H24.4001V7.55562C24.4001 8.78109 23.7789 9.45752 22.653 9.45752C21.5272 9.45752 20.919 8.74156 20.919 7.49412V2.71082H18.6414V7.54244C18.6414 10.1032 20.0217 11.4604 22.6272 11.4604Z" fill="#0D0D0D"/>
<path d="M9.53119 8.70205V8.6757C9.53119 7.04173 8.24141 6.42679 6.30459 6.00073C5.10541 5.7328 4.67836 5.54392 4.67836 5.04319V5.01684C4.67836 4.59956 5.04501 4.34919 5.66186 4.34919C6.47283 4.34919 7.34849 4.64788 8.12926 5.18814L9.25512 3.60249C8.29318 2.86018 7.14144 2.5 5.72657 2.5C3.72504 2.5 2.37919 3.60249 2.37919 5.24524V5.2716C2.37919 7.06369 3.86308 7.54685 5.65755 7.95974C6.90419 8.25842 7.24497 8.46486 7.24497 8.91728V8.94363C7.24497 9.39165 6.83517 9.65081 6.12342 9.65081C5.11835 9.65081 4.15209 9.30381 3.25486 8.61859L2.00391 10.112C3.05212 11.0081 4.48424 11.5 6.03715 11.5C8.19396 11.5 9.5355 10.4283 9.5355 8.70205" fill="#0D0D0D"/>
<path d="M61.6699 6.9978V7.02416C61.6699 9.57174 63.7146 11.4956 66.4279 11.4956C67.7737 11.4956 68.9427 11.0608 70.0039 10.1691V6.35212H66.7384V7.95095H68.1447V9.17203L68.1015 9.20278C67.7565 9.44436 67.1655 9.58492 66.5271 9.58492C65.0777 9.58492 63.9389 8.46047 63.9389 7.02855V7.0022C63.9389 5.59663 64.9526 4.49414 66.251 4.49414C67.062 4.49414 67.6961 4.73133 68.369 5.28917L69.6286 3.69473C68.6753 2.88214 67.5968 2.5 66.2381 2.5C63.6326 2.5 61.6699 4.43265 61.6699 6.9978Z" fill="#0D0D0D"/>
</svg>
