<svg width="44" height="44" viewBox="0 0 44 44" fill="none" xmlns="http://www.w3.org/2000/svg">
<path fill-rule="evenodd" clip-rule="evenodd" d="M36.4466 30.5201L11.4248 23.2785L17.4716 8.78711L40.566 20.6477L36.4466 30.5201Z" fill="url(#paint0_linear_29_8627)"/>
<path fill-rule="evenodd" clip-rule="evenodd" d="M40.5814 20.6128L35.4711 17.9883C36.226 18.6527 36.799 19.4774 37.1591 20.3841C37.7309 21.8243 37.7639 23.4714 37.1198 25.0148C36.4758 26.5582 35.273 27.7148 33.8326 28.3561C32.9258 28.7598 31.9251 28.9598 30.9092 28.9211L36.446 30.5236C39.2518 31.6374 42.4521 30.3218 43.594 27.5851C44.736 24.8483 43.3872 21.7267 40.5814 20.6128Z" fill="url(#paint1_linear_29_8627)"/>
<path fill-rule="evenodd" clip-rule="evenodd" d="M2.17052 11.5578C5.80448 3.07014 14.4886 -1.7037 21.567 0.894988C28.6454 3.49367 31.4377 12.481 27.8037 20.9686C24.1698 29.4562 15.4857 34.23 8.40721 31.6314C1.32883 29.0326 -1.46343 20.0454 2.17052 11.5578Z" fill="white"/>
<mask id="mask0_29_8627" style="mask-type:alpha" maskUnits="userSpaceOnUse" x="-1" y="0" width="30" height="33">
<path fill-rule="evenodd" clip-rule="evenodd" d="M1.58885 11.3712C0.513037 13.8895 0.00171549 16.4519 -0.000976562 18.8781V18.9147C0.00499643 24.6504 2.85529 29.6211 7.81186 31.4448C14.8746 34.0435 23.5396 29.2697 27.1655 20.782C30.7915 12.2944 28.0054 3.30719 20.9426 0.708413C19.6377 0.228297 18.2791 -0.000164391 16.9068 8.87468e-08C10.8511 0.000493527 4.54489 4.45172 1.58885 11.3712Z" fill="white"/>
</mask>
<g mask="url(#mask0_29_8627)">
<path fill-rule="evenodd" clip-rule="evenodd" d="M1.58885 11.3712C0.513037 13.8895 0.00171549 16.4519 -0.000976562 18.8781V18.9147C0.00499643 24.6504 2.85529 29.6211 7.81186 31.4448C14.8746 34.0435 23.5396 29.2697 27.1655 20.782C30.7915 12.2944 28.0054 3.30719 20.9426 0.708413C19.6377 0.228297 18.2791 -0.000164391 16.9068 8.87468e-08C10.8511 0.000493527 4.54489 4.45172 1.58885 11.3712Z" fill="url(#paint2_linear_29_8627)"/>
</g>
<mask id="mask1_29_8627" style="mask-type:alpha" maskUnits="userSpaceOnUse" x="8" y="0" width="22" height="33">
<path fill-rule="evenodd" clip-rule="evenodd" d="M27.1679 20.7469C23.6268 29.1036 15.2443 33.8628 8.29785 31.5381C8.37969 31.5707 8.46153 31.6032 8.54454 31.6341C15.5555 34.2348 24.1568 29.4572 27.7561 20.9631C31.3555 12.469 28.5899 3.47483 21.579 0.87415C21.4655 0.832011 21.3517 0.792095 21.2373 0.753906C28.0656 3.47252 30.7246 12.3534 27.1679 20.7469Z" fill="white"/>
</mask>
<g mask="url(#mask1_29_8627)">
<path fill-rule="evenodd" clip-rule="evenodd" d="M27.1679 20.7469C23.6268 29.1036 15.2443 33.8628 8.29785 31.5381C8.37969 31.5707 8.46153 31.6032 8.54454 31.6341C15.5555 34.2348 24.1568 29.4572 27.7561 20.9631C31.3555 12.469 28.5899 3.47483 21.579 0.87415C21.4655 0.832011 21.3517 0.792095 21.2373 0.753906C28.0656 3.47252 30.7246 12.3534 27.1679 20.7469Z" fill="#F0F0F0"/>
</g>
<mask id="mask2_29_8627" style="mask-type:alpha" maskUnits="userSpaceOnUse" x="1" y="2" width="26" height="28">
<path fill-rule="evenodd" clip-rule="evenodd" d="M16.6546 2.06934C11.527 2.06991 5.85037 5.87052 3.27065 11.8894C0.129091 19.2192 2.76828 27.0629 8.51154 29.1692C14.2547 31.2755 21.4573 27.0412 24.5988 19.7114C27.7404 12.3817 25.6313 4.73232 19.8881 2.62604C18.8614 2.24954 17.7722 2.06934 16.6561 2.06934C16.6556 2.06934 16.6551 2.06934 16.6546 2.06934Z" fill="white"/>
</mask>
<g mask="url(#mask2_29_8627)">
<path fill-rule="evenodd" clip-rule="evenodd" d="M16.6546 2.06934C11.527 2.06991 5.85037 5.87052 3.27065 11.8894C0.129091 19.2192 2.76828 27.0629 8.51154 29.1692C14.2547 31.2755 21.4573 27.0412 24.5988 19.7114C27.7404 12.3817 25.6313 4.73232 19.8881 2.62604C18.8614 2.24954 17.7722 2.06934 16.6561 2.06934C16.6556 2.06934 16.6551 2.06934 16.6546 2.06934Z" fill="url(#paint3_linear_29_8627)"/>
</g>
<path fill-rule="evenodd" clip-rule="evenodd" d="M18.5511 16.9351C19.2807 14.8291 18.8682 12.7999 17.5605 12.2974C17.3976 12.2348 17.2262 12.198 17.0492 12.1855L10.9087 10.9775L9.64746 14.0594L13.2192 15.4651C12.3812 17.6538 12.8973 19.862 14.2529 20.3829C15.5998 20.9004 17.4001 19.6077 18.3373 17.4793L18.3376 17.4795C18.3619 17.4243 18.3859 17.3688 18.4089 17.3126C18.4604 17.1867 18.5078 17.0608 18.5511 16.9351Z" fill="white"/>
<path fill-rule="evenodd" clip-rule="evenodd" d="M14.0944 20.3116L8.39941 17.1096L10.9141 10.9648L17.3961 12.24L14.0944 20.3116Z" fill="white"/>
<path fill-rule="evenodd" clip-rule="evenodd" d="M8.66494 17.2598C9.77919 17.6879 11.2523 16.6415 11.9563 14.9205C12.6603 13.1995 12.3278 11.4573 11.2136 11.0292L11.1644 11.0152L11.1333 11.0076C11.0026 10.9755 10.8704 10.9485 10.7374 10.9267L10.7201 10.9238L8.18457 16.9754C8.26807 17.0353 8.35539 17.0902 8.44584 17.1397L8.66494 17.2598Z" fill="#F7F7F7"/>
<path fill-rule="evenodd" clip-rule="evenodd" d="M7.66755 13.2701C8.36167 11.5734 9.91624 10.5791 11.0147 11.0011C12.1132 11.4233 12.441 13.1409 11.747 14.8376C11.0529 16.5343 9.59972 17.5675 8.50117 17.1455C7.40271 16.7233 6.97342 14.9668 7.66755 13.2701Z" fill="#F2F2F2"/>
<mask id="mask3_29_8627" style="mask-type:alpha" maskUnits="userSpaceOnUse" x="8" y="11" width="4" height="6">
<path fill-rule="evenodd" clip-rule="evenodd" d="M8.35909 13.5062C7.89725 14.6672 8.09165 15.833 8.79318 16.1103C9.4947 16.3875 10.5026 15.6968 10.9643 14.5358C11.4262 13.3749 11.1671 12.1835 10.4654 11.9062C10.3635 11.866 10.2565 11.8467 10.1465 11.8467C9.49998 11.8467 8.75368 12.5142 8.35909 13.5062Z" fill="white"/>
</mask>
<g mask="url(#mask3_29_8627)">
<path fill-rule="evenodd" clip-rule="evenodd" d="M8.35909 13.5062C7.89725 14.6672 8.09165 15.833 8.79318 16.1103C9.4947 16.3875 10.5026 15.6968 10.9643 14.5358C11.4262 13.3749 11.1671 12.1835 10.4654 11.9062C10.3635 11.866 10.2565 11.8467 10.1465 11.8467C9.49998 11.8467 8.75368 12.5142 8.35909 13.5062Z" fill="#12AB96"/>
</g>
<mask id="mask4_29_8627" style="mask-type:alpha" maskUnits="userSpaceOnUse" x="19" y="25" width="15" height="19">
<path fill-rule="evenodd" clip-rule="evenodd" d="M28.8129 26.1846C28.1949 27.0268 27.0442 27.3234 26.0749 26.8903L19.4311 39.6297C19.0612 40.5109 19.4998 41.5153 20.4108 41.8731L23.1145 42.9351C24.0255 43.2929 25.0639 42.8686 25.4338 41.9875L33.0025 27.0452L29.26 25.5752L28.8129 26.1846Z" fill="white"/>
</mask>
<g mask="url(#mask4_29_8627)">
<path fill-rule="evenodd" clip-rule="evenodd" d="M28.8129 26.1846C28.1949 27.0268 27.0442 27.3234 26.0749 26.8903L19.4311 39.6297C19.0612 40.5109 19.4998 41.5153 20.4108 41.8731L23.1145 42.9351C24.0255 43.2929 25.0639 42.8686 25.4338 41.9875L33.0025 27.0452L29.26 25.5752L28.8129 26.1846Z" fill="url(#paint4_linear_29_8627)"/>
</g>
<defs>
<linearGradient id="paint0_linear_29_8627" x1="16.427" y1="10.5779" x2="14.7246" y2="29.5065" gradientUnits="userSpaceOnUse">
<stop stop-color="white"/>
<stop offset="0.995962" stop-color="#F6F6F6"/>
<stop offset="1" stop-color="white"/>
</linearGradient>
<linearGradient id="paint1_linear_29_8627" x1="30.9092" y1="17.9883" x2="30.9092" y2="30.9197" gradientUnits="userSpaceOnUse">
<stop stop-color="#28ECC2"/>
<stop offset="1" stop-color="#2AC5C6"/>
</linearGradient>
<linearGradient id="paint2_linear_29_8627" x1="30.6071" y1="26.3625" x2="22.8543" y2="-3.03514" gradientUnits="userSpaceOnUse">
<stop stop-color="#F9F9F9"/>
<stop offset="1" stop-color="white"/>
</linearGradient>
<linearGradient id="paint3_linear_29_8627" x1="1.93066" y1="2.06934" x2="1.93066" y2="29.7099" gradientUnits="userSpaceOnUse">
<stop stop-color="#28E9C2"/>
<stop offset="1" stop-color="#2AC6C5"/>
</linearGradient>
<linearGradient id="paint4_linear_29_8627" x1="22.4713" y1="34.8629" x2="28.949" y2="40.85" gradientUnits="userSpaceOnUse">
<stop stop-color="white"/>
<stop offset="1" stop-color="#E7E7E7"/>
</linearGradient>
</defs>
</svg>
