<svg xmlns="http://www.w3.org/2000/svg" xmlns:xlink="http://www.w3.org/1999/xlink" width="32" height="32" viewBox="0 0 32 32">
  <defs>
    <polygon id="icon_kakaotalk-a" points="0 .019 21.947 .019 21.947 20.526 0 20.526"/>
  </defs>
  <g fill="none" fill-rule="evenodd">
    <rect width="32" height="32"/>
    <g transform="translate(5 6)">
      <mask id="icon_kakaotalk-b" fill="#fff">
        <use xlink:href="#icon_kakaotalk-a"/>
      </mask>
      <path fill="#391B1B" d="M10.9733499,0.0190634544 C4.91271938,0.0190634544 1.1369509e-05,3.96919392 1.1369509e-05,8.84260385 C1.1369509e-05,12.0144111 2.08159793,14.7941947 5.20571163,16.3494534 C4.97621809,17.2211569 4.37471421,19.5071524 4.25391318,19.9960835 C4.10542739,20.603142 4.47288992,20.5949315 4.71346873,20.4314726 C4.90208889,20.3036891 7.72047649,18.3551924 8.93650233,17.5140182 C9.59633178,17.6134119 10.277138,17.6663177 10.9733499,17.6663177 C17.033753,17.6663177 21.9466884,13.7152621 21.9466884,8.84260385 C21.9466884,3.96919392 17.033753,0.0190634544 10.9733499,0.0190634544" mask="url(#icon_kakaotalk-b)"/>
    </g>
    <path fill="#FAE300" d="M12.2584797 12.3157895L8.74120879 12.3157895C8.41066047 12.3157895 8.14285714 12.5627785 8.14285714 12.8672777 8.14285714 13.1720068 8.41066047 13.4189958 8.74120879 13.4189958L9.88457573 13.4189958 9.88457573 17.3040035C9.88457573 17.4451647 9.94700918 17.5840853 10.056735 17.6847424 10.1640308 17.7845951 10.3142574 17.8421053 10.4680356 17.8421053L10.595831 17.8421053C10.7489861 17.8421053 10.8986519 17.7845951 11.0063215 17.6849722 11.1157358 17.5843151 11.1784185 17.4461988 11.1784185 17.3040035L11.1784185 13.4189958 12.2584797 13.4189958C12.5893395 13.4189958 12.8571429 13.1720068 12.8571429 12.8672777 12.8571429 12.5627785 12.5893395 12.3157895 12.2584797 12.3157895M19.0449562 16.8481234L17.5662596 16.8481234 17.5662596 12.9100574C17.5662596 12.5816762 17.3036694 12.3157895 16.9796147 12.3157895 16.6554473 12.3157895 16.3928571 12.5816762 16.3928571 12.9100574L16.3928571 17.1548368C16.3928571 17.1877377 16.3969135 17.2186998 16.4019839 17.24989 16.3961247 17.2805101 16.3928571 17.3127267 16.3928571 17.3446011 16.3928571 17.6194401 16.6118419 17.8421053 16.8836715 17.8421053L19.0449562 17.8421053C19.3167858 17.8421053 19.5357143 17.6194401 19.5357143 17.3446011 19.5357143 17.0707885 19.3167858 16.8481234 19.0449562 16.8481234M24.1264039 16.9970012L22.1897222 14.8210975 23.9394423 13.3235425C24.1764545 13.1212329 24.1764545 12.7921118 23.9397071 12.5894624 23.7029596 12.3868697 23.318576 12.3868697 23.0809017 12.5894624L20.914755 14.4425884 20.914755 12.9060666C20.914755 12.5798906 20.6062418 12.3157895 20.2254333 12.3157895 19.8444261 12.3157895 19.5357143 12.5798906 19.5357143 12.9060666L19.5357143 17.2518138C19.5357143 17.578273 19.8444261 17.8418078 20.2254333 17.8418078 20.6062418 17.8418078 20.914755 17.578273 20.914755 17.2518138L20.914755 15.910975 21.3085397 15.574491 23.1403534 17.630946C23.3442634 17.8640097 23.7317586 17.9117552 24.0036607 17.7360087 24.2760262 17.5610552 24.3308436 17.2300083 24.1264039 16.9970012"/>
    <path fill="#FAE300" d="M13.3011809,15.727083 L14.0242917,13.6363121 C14.0323965,13.6363121 14.0394392,13.6385776 14.0475999,13.6385776 L14.7701517,15.727083 L13.3011809,15.727083 Z M16.3632648,17.1382231 L14.7908328,12.7796375 C14.7908328,12.7796375 14.7871437,12.7761261 14.7856346,12.7747668 C14.6848004,12.5093143 14.39493,12.3157895 14.0488295,12.3157895 C13.6650001,12.3157895 13.3475177,12.5533771 13.2844125,12.8644781 C13.2736807,12.8875855 13.2629489,12.9108629 13.2543411,12.9360659 L11.7081796,17.1382231 C11.6127113,17.41404 11.755802,17.7155129 12.0268358,17.8120771 C12.2984844,17.9089245 12.5966831,17.76371 12.6921514,17.4886295 L12.9596638,16.7146999 L15.1117806,16.7146999 L15.3791813,17.4886295 C15.4747055,17.76371 15.7725129,17.9089245 16.0441615,17.8120771 C16.3155307,17.7155129 16.4587331,17.41404 16.3632648,17.1382231 L16.3632648,17.1382231 Z"/>
  </g>
</svg>
