<svg width="66" height="18" viewBox="0 0 66 18" fill="none" xmlns="http://www.w3.org/2000/svg">
<path d="M0 0H66V18H0V0Z" fill="white" fill-opacity="0.01"/>
<path d="M24 4V14.9871L31 15V12.4105L26.4213 12.4019V4.00431L24 4Z" fill="#0D0D0D"/>
<path d="M31.4459 9.46114C31.4459 12.4525 33.9535 14.801 37.1505 14.8051C40.3677 14.8091 42.8874 12.4605 42.8874 9.45306V9.42072C42.8874 6.42941 40.3798 4.08083 37.1828 4.07679C33.9656 4.07275 31.4459 6.42133 31.4459 9.4288V9.4571V9.46114ZM34.2801 9.40455C34.2801 7.73508 35.5137 6.47792 37.1505 6.47792C38.7954 6.47792 40.0371 7.75529 40.0371 9.44497V9.47327C40.0371 11.1427 38.8075 12.3999 37.1828 12.3999C35.5581 12.3999 34.2801 11.0942 34.2801 9.43285V9.40051V9.40455Z" fill="#0D0D0D"/>
<path d="M49.2369 14.8334C51.4905 14.8374 54.1755 14.0128 54.1755 10.0634V4.33952H51.3978V10.1483C51.3978 11.6197 50.6439 12.4322 49.2691 12.4282C47.8944 12.4241 47.1566 11.5631 47.1566 10.0675V4.32739H44.3789V10.1241C44.3789 13.2003 46.06 14.8293 49.2369 14.8334Z" fill="#0D0D0D"/>
<path d="M64.4075 13.2609C65.4477 12.3474 66 11.0417 66 9.49349V9.46519C66 7.94124 65.4557 6.65983 64.4236 5.75839C63.3835 4.84887 61.8959 4.36784 60.118 4.3638L56.0381 4.35571V14.6636L60.0575 14.6717C61.8556 14.6717 63.3593 14.1907 64.4075 13.269V13.2609ZM58.7634 6.70025H60.1502C62.0733 6.70429 63.2706 7.77955 63.2706 9.50157V9.52987C63.2706 11.2438 62.0773 12.3069 60.1502 12.3029H58.7634V6.70025V6.70025Z" fill="#0D0D0D"/>
<path d="M18.6297 1.01671C18.5974 0.996497 18.5571 0.992455 18.5208 1.01671L11.0504 5.34198C11.0504 5.34198 10.3812 5.77046 10.3812 4.87307C10.3812 4.8569 10.3812 4.84478 10.3812 4.83265V1.12181C10.3812 1.08139 10.361 1.04096 10.3288 1.02075C10.2965 1.00054 10.2562 0.996497 10.2199 1.02075L0.0564413 6.90231C0.0201576 6.92252 0 6.96295 0 7.00741V16.8787C0 16.9192 0.0201576 16.9596 0.0524098 16.9798C0.0685358 16.9919 0.0886934 16.996 0.108851 16.996C0.124977 16.996 0.145135 16.9919 0.161261 16.9838L7.67601 12.6303C7.82518 12.5535 8.29687 12.3675 8.29687 13.1275C8.29687 13.1356 8.29687 13.1436 8.29687 13.1517V16.8828C8.29687 16.9232 8.31703 16.9636 8.34928 16.9838C8.3654 16.996 8.38556 17 8.40572 17C8.42185 17 8.442 16.996 8.45813 16.9879L18.6216 11.1023C18.6579 11.0821 18.678 11.0416 18.678 10.9972V1.12181C18.678 1.08139 18.6579 1.04096 18.6256 1.02075L18.6297 1.01671Z" fill="#2656F6"/>
</svg>
