<svg width="117" height="16" viewBox="0 0 117 16" fill="none" xmlns="http://www.w3.org/2000/svg">
<path d="M45.5662 3.81274C42.1759 3.81274 39.5186 6.26282 39.5186 9.39298V9.43351C39.5186 12.5412 42.1579 14.9732 45.5257 14.9732C48.8935 14.9732 51.5733 12.5231 51.5733 9.39298V9.35244C51.5733 6.24481 48.9339 3.81274 45.5662 3.81274ZM48.5113 9.43351C48.5113 11.1179 47.3018 12.2934 45.5662 12.2934C43.8306 12.2934 42.5761 11.0459 42.5761 9.39298V9.35244C42.5761 7.66802 43.7856 6.49252 45.5212 6.49252C47.2568 6.49252 48.5113 7.74008 48.5113 9.39298V9.43351Z" fill="#161C1C"/>
<path d="M66.506 3.81274C63.363 3.81274 60.9934 6.21328 60.9934 9.39298V9.43351C60.9934 12.6447 63.4394 14.9732 66.8117 14.9732C68.7182 14.9732 70.2514 14.3021 71.362 12.9735L71.389 12.942L69.5365 11.3657L69.5095 11.3882C68.6372 12.1673 67.8908 12.4691 66.8522 12.4691C65.4988 12.4691 64.568 11.798 64.2263 10.582L64.1948 10.4649H71.8836V10.4289C71.9061 10.1721 71.9286 9.87939 71.9286 9.63168C71.9286 5.33954 69.0059 3.81274 66.5015 3.81274H66.506ZM64.1589 8.55076L64.1858 8.43817C64.5006 7.09153 65.4133 6.31687 66.6948 6.31687C67.9763 6.31687 68.8935 7.10954 69.1453 8.44267L69.1633 8.55527H64.1589V8.55076Z" fill="#161C1C"/>
<path d="M86.645 3.81274C83.2548 3.81274 80.5974 6.26282 80.5974 9.39298V9.43351C80.5974 12.5412 83.2368 14.9732 86.6046 14.9732C89.9723 14.9732 92.6522 12.5231 92.6522 9.39298V9.35244C92.6522 6.24481 90.0128 3.81274 86.645 3.81274ZM89.5901 9.43351C89.5901 11.1179 88.3806 12.2934 86.645 12.2934C84.9094 12.2934 83.6549 11.0459 83.6549 9.39298V9.35244C83.6549 7.66802 84.8645 6.49252 86.6001 6.49252C88.3357 6.49252 89.5901 7.74008 89.5901 9.39298V9.43351Z" fill="#161C1C"/>
<path d="M97.5264 0.268066H94.3025V14.8424H97.5264V0.268066Z" fill="#161C1C"/>
<path d="M103.178 4.72681H99.9768V14.8424H103.178V4.72681Z" fill="#161C1C"/>
<path d="M110.993 3.81274C107.603 3.81274 104.945 6.26282 104.945 9.39298V9.43351C104.945 12.5412 107.585 14.9732 110.952 14.9732C114.32 14.9732 117 12.5231 117 9.39298V9.35244C117 6.24481 114.361 3.81274 110.993 3.81274ZM113.938 9.43351C113.938 11.1179 112.729 12.2934 110.993 12.2934C109.257 12.2934 108.003 11.0459 108.003 9.39298V9.35244C108.003 7.66802 109.212 6.49252 110.948 6.49252C112.684 6.49252 113.938 7.74008 113.938 9.39298V9.43351Z" fill="#161C1C"/>
<path d="M57.4096 11.8338L57.3511 11.7527C57.2882 11.6491 57.1848 11.4014 57.1848 10.9105V6.78051H59.4779V4.24036H57.1803V1.35791H54.2172V4.23585H52.4006V6.77601H54.2172V11.7392C54.2172 14.0091 55.1434 14.9775 57.3107 14.9775C58.3853 14.9775 59.2756 14.8153 59.8107 14.5226H59.8286V11.9644C58.4797 12.2572 57.6659 12.2121 57.4006 11.8338H57.4096Z" fill="#161C1C"/>
<path d="M77.7468 0.00236497C76.6182 0.0383955 75.8808 0.317632 75.2018 0.970686C74.6038 1.54718 74.3026 2.42092 74.3026 3.5784V4.23145H72.6929V6.77611H74.3026V14.838H77.432V6.78062H80.022V4.24046H77.3916V3.74954C77.3916 3.13252 77.7873 2.73618 78.5067 2.6371C79.0417 2.56954 79.7027 2.64611 80.0444 2.72267V0.254579L80.0175 0.245571C79.388 0.051907 78.691 -0.024658 77.7558 0.00686879L77.7468 0.00236497Z" fill="#161C1C"/>
<path d="M101.573 3.32172C102.479 3.32172 103.214 2.58573 103.214 1.67783C103.214 0.769932 102.479 0.0339355 101.573 0.0339355C100.667 0.0339355 99.9319 0.769932 99.9319 1.67783C99.9319 2.58573 100.667 3.32172 101.573 3.32172Z" fill="#161C1C"/>
<path d="M33.3901 3.60107C32.1896 3.60107 31.1959 3.93886 30.4315 4.60092L30.2786 4.73604V3.94336H27.0322V14.8471H30.2786V8.97864C30.2786 8.17696 30.4809 7.57795 30.8811 7.19062C31.3083 6.77627 31.8748 6.56008 32.5178 6.56008C33.1608 6.56008 33.7588 6.77176 34.1185 7.10505C34.4737 7.42932 34.6491 7.91573 34.6491 8.54627V14.8561H37.9674V8.21299C37.9674 6.80329 37.5447 5.68184 36.7039 4.87115C35.8721 4.07398 34.6626 3.61459 33.3856 3.61459L33.3901 3.60107Z" fill="#161C1C"/>
<path d="M19.766 6.24022C19.7481 6.2132 19.7121 6.19518 19.6671 6.19518H13.2643C12.8596 6.19518 12.6932 6.00152 12.8596 5.6232L14.9684 0.840142C14.9864 0.799607 14.9864 0.759073 14.9684 0.73205C14.9504 0.700523 14.9145 0.687012 14.8695 0.687012H4.41993C4.3345 0.687012 4.24008 0.750065 4.2041 0.82663L0.0134891 10.3342C-0.00449637 10.3747 -0.00449637 10.4153 0.0134891 10.4468C0.0314746 10.4738 0.0674455 10.4918 0.112409 10.4918H6.5647C6.94689 10.4918 7.11775 10.6405 6.94239 11.0233L4.81561 15.8424C4.79763 15.8829 4.79763 15.9234 4.81561 15.955C4.8336 15.982 4.86957 16 4.91453 16H15.3641C15.4046 16 15.4495 15.9865 15.49 15.9595C15.5305 15.9324 15.5619 15.8964 15.5754 15.8604L19.766 6.35282C19.784 6.31228 19.784 6.27175 19.766 6.24022Z" fill="#1ECAD3"/>
</svg>
