<svg xmlns="http://www.w3.org/2000/svg" xmlns:xlink="http://www.w3.org/1999/xlink" width="32" height="32" viewBox="0 0 32 32">
  <defs>
    <polygon id="icon_naverblog-a" points="0 .108 21.932 .108 21.932 20.451 0 20.451"/>
  </defs>
  <g fill="none" fill-rule="evenodd">
    <rect width="32" height="32"/>
    <path fill="#2EB34A" d="M9.78602254 13.6612676C9.36910704 13.6612676 9.0310507 13.9994789 9.0310507 14.4165493 9.0310507 14.8336197 9.36910704 15.171831 9.78602254 15.171831 10.203093 15.171831 10.5413042 14.8336197 10.5413042 14.4165493 10.5413042 13.9994789 10.203093 13.6612676 9.78602254 13.6612676M17.2458042 13.5824394C16.7968183 13.5824394 16.4325789 13.9465239 16.4325789 14.3958197 16.4325789 14.8448056 16.7968183 15.2088901 17.2458042 15.2088901 17.6947901 15.2088901 18.0590296 14.8448056 18.0590296 14.3958197 18.0590296 13.9465239 17.6947901 13.5824394 17.2458042 13.5824394"/>
    <g transform="translate(5 6.047)">
      <mask id="icon_naverblog-b" fill="#fff">
        <use xlink:href="#icon_naverblog-a"/>
      </mask>
      <path fill="#2EB34A" d="M19.2829911,10.3308901 C19.2829911,10.3308901 19.3014211,12.2137493 17.3885056,12.2137493 L16.8064352,12.2137493 L16.8064352,10.9938338 L17.1575056,10.9938338 C17.1575056,10.9938338 17.9614352,11.0677352 17.9521394,9.82953803 C17.9521394,9.82953803 17.7950408,10.3308901 16.6676183,10.3308901 C16.6676183,10.3308901 15.0690549,10.2156225 15.0690549,8.65579155 L15.0690549,8.06442535 C15.0690549,8.06442535 15.1059282,6.44727042 16.8617451,6.31790423 C16.8617451,6.31790423 17.5547451,6.24400282 17.9798718,6.81693239 L17.9798718,6.41953803 L19.2829911,6.41953803 L19.2829911,10.3308901 Z M12.2457732,10.3308901 C11.0565338,10.3308901 10.092562,9.44329859 10.092562,8.34872113 C10.092562,7.2538338 11.0565338,6.36639718 12.2457732,6.36639718 C13.4350127,6.36639718 14.3989845,7.2538338 14.3989845,8.34872113 C14.3989845,9.44329859 13.4350127,10.3308901 12.2457732,10.3308901 L12.2457732,10.3308901 Z M9.20078732,6.48414366 L9.20078732,10.1899042 L7.9162662,10.1899042 L7.9162662,6.52117183 C7.9162662,6.02214366 7.29716761,5.88348169 7.29716761,5.88348169 L7.29716761,4.58981972 C9.34874507,4.67286197 9.20078732,6.48414366 9.20078732,6.48414366 L9.20078732,6.48414366 Z M6.89047746,8.53587606 C6.88133662,10.278369 5.07919577,10.3285662 5.07919577,10.3285662 C4.38232254,10.3285662 3.98880141,9.86641127 3.98880141,9.86641127 L3.98880141,10.1806085 L2.67639296,10.1806085 L2.67639296,4.76845352 C2.67112535,4.76752394 2.67050563,4.76643944 2.67639296,4.76535493 L2.67639296,4.76845352 C2.75788592,4.78162254 3.98880141,4.76535493 3.98880141,4.76535493 L3.98880141,6.83536901 C4.29742113,6.30922817 5.19012535,6.31790423 5.19012535,6.31790423 C7.13325211,6.4990169 6.89047746,8.53587606 6.89047746,8.53587606 L6.89047746,8.53587606 Z M18.9983789,0.107861972 L2.93404085,0.107861972 C1.31347746,0.107861972 -1.54929577e-05,1.42135493 -1.54929577e-05,3.04176338 L-1.54929577e-05,12.5758197 C-1.54929577e-05,14.1963831 1.31347746,15.5098761 2.93404085,15.5098761 L8.60787183,15.5098761 L10.5376746,20.0565944 C10.5376746,20.0565944 10.6704493,20.4507352 10.9920831,20.4507352 C11.3138718,20.4507352 11.4466465,20.0565944 11.4466465,20.0565944 L13.3764493,15.5098761 L18.9983789,15.5098761 C20.6187873,15.5098761 21.9324352,14.1963831 21.9324352,12.5758197 L21.9324352,3.04176338 C21.9324352,1.42135493 20.6187873,0.107861972 18.9983789,0.107861972 L18.9983789,0.107861972 Z" mask="url(#icon_naverblog-b)"/>
    </g>
    <path fill="#2EB34A" d="M22.2406099,13.6009845 C21.8016944,13.6009845 21.4459761,13.9567028 21.4459761,14.3957732 C21.4459761,14.8346887 21.8016944,15.190407 22.2406099,15.190407 C22.6795254,15.190407 23.0353986,14.8346887 23.0353986,14.3957732 C23.0353986,13.9567028 22.6795254,13.6009845 22.2406099,13.6009845"/>
  </g>
</svg>
