<svg xmlns="http://www.w3.org/2000/svg" width="32" height="50" viewBox="0 0 32 50">
    <g fill="none" fill-rule="evenodd">
        <g>
            <g>
                <g>
                    <g>
                        <path fill="#1ECAD3" d="M0 0h32v49.098c0 .276-.224.5-.5.5-.094 0-.186-.026-.265-.076l-14.97-9.356c-.162-.102-.368-.102-.53 0L.765 49.522c-.234.146-.543.075-.689-.16-.05-.079-.076-.17-.076-.264V0z" transform="translate(-284.000000, -801.000000) translate(0.000000, 664.000000) translate(24.000000, 137.000000) translate(260.000000, 0.000000)"/>
                        <path fill="#FFF" fill-rule="nonzero" d="M10.391 27v-5.785L14.798 27h1.703v-9.1h-1.976v5.603L10.261 17.9H8.415V27h1.976zm9.496 0v-2.73h1.521c2.041 0 3.679-1.092 3.679-3.198v-.026c0-1.859-1.313-3.146-3.484-3.146h-3.718V27h2.002zm1.586-4.511h-1.586v-2.782h1.547c1.001 0 1.625.481 1.625 1.378v.026c0 .78-.585 1.378-1.586 1.378z" transform="translate(-284.000000, -801.000000) translate(0.000000, 664.000000) translate(24.000000, 137.000000) translate(260.000000, 0.000000)"/>
                    </g>
                </g>
            </g>
        </g>
    </g>
</svg>
