<svg xmlns="http://www.w3.org/2000/svg" width="32" height="32" viewBox="0 0 32 32">
  <g fill="none" fill-rule="evenodd">
    <rect width="32" height="32"/>
    <path fill="#E52046" d="M12.3623496,24.8781314 C12.1806451,25.1140994 11.8017466,24.9854435 11.8029381,24.6884084 L11.8446408,23.17181 C11.8446408,23.0206244 11.8339172,22.8729962 11.846428,22.7271466 C11.8940882,22.1704281 11.8911095,21.601259 12.0114514,21.0599555 C12.4249036,19.1917766 12.8842286,17.3336767 13.3191279,15.4702408 C13.347724,15.3498853 13.3370004,15.2236009 13.2958935,15.1068027 C13.0331667,14.3603611 12.9515487,13.6008761 13.1362319,12.8283477 C13.3090001,12.1062144 13.6533449,11.4896146 14.3539497,11.1481131 C15.3476646,10.6631336 16.3711672,11.2216308 16.4295509,12.3119453 C16.453381,12.7583873 16.376529,13.2232087 16.2675063,13.6607575 C16.0595887,14.4985032 15.7772021,15.3178695 15.5645185,16.1550224 C15.3530264,16.9880251 15.8367773,17.8542292 16.6714264,18.0753751 C17.3958612,18.2680626 18.0333163,18.071225 18.6034513,17.6354549 C19.0812447,17.2714238 19.4386961,16.7710293 19.6984441,16.2309116 C20.3126648,14.9520598 20.5324974,13.59139 20.4073894,12.1951471 C20.2834729,10.8160978 19.5798894,9.77499273 18.2871068,9.20997384 C17.8277817,9.00898601 17.3154347,8.88922334 16.8155984,8.82697048 C15.5853698,8.6734134 14.4039929,8.86728662 13.3387877,9.53309587 C11.9197056,10.4212368 11.1916962,11.7315114 11.0630137,13.3779516 C11.0088002,14.0722193 11.0510986,14.791981 11.5050619,15.3403991 C11.9637913,15.8941532 11.8887265,16.4485002 11.6700853,17.0828866 C11.5604669,17.4036371 11.3233575,17.4463247 11.0350133,17.3147044 C10.383856,17.0182622 9.9024881,16.5409902 9.5736328,15.9143113 C9.04937072,14.9135223 8.90102839,13.8368442 9.06128577,12.7364506 C9.36154496,10.6720269 10.4708358,9.1275629 12.2539226,8.05740645 C13.3215109,7.41768412 14.4963345,7.11353439 15.7313292,7.02519461 C17.3464138,6.91017502 18.8792846,7.18408764 20.2560683,8.07282145 C21.7943009,9.0664958 22.76359,10.4621458 22.9524435,12.2888228 C23.1317649,14.0265672 22.8076756,15.7008729 21.9170259,17.2281433 C21.0245888,18.7577852 19.7264445,19.7253726 17.9195276,19.9127241 C16.7196823,20.0378227 15.6687752,19.7390089 14.8942971,18.7411844 C14.877616,18.7441488 14.875233,18.7441488 14.858552,18.7471132 C14.3736095,20.4154901 14.172841,22.1733925 13.1016783,23.6508606 L12.3623496,24.8781314 Z"/>
  </g>
</svg>
