<svg width="88" height="14" viewBox="0 0 88 14" fill="none" xmlns="http://www.w3.org/2000/svg">
<path d="M0 0H88V14H0V0Z" fill="white" fill-opacity="0.01"/>
<path d="M40.8749 11.119C42.6335 11.119 44.7327 10.4938 44.7327 7.51418V3.20215H42.5775V7.57886C42.5775 8.69137 41.987 9.30368 40.9137 9.30368C39.8404 9.30368 39.2499 8.65687 39.2499 7.53574V3.22371H37.0947V7.57024C37.0947 9.89012 38.3878 11.119 40.8921 11.119" fill="#0D0D0D"/>
<path d="M28.4013 8.61824V8.59668C28.4013 7.11765 27.1728 6.55709 25.328 6.17331C24.1857 5.92753 23.7806 5.74211 23.7806 5.31091V5.28072C23.7806 4.90126 24.1297 4.67704 24.7159 4.67704C25.5558 4.69747 26.3718 4.96109 27.0651 5.43596L28.1556 4.00005C27.175 3.30641 25.9936 2.95486 24.7935 2.99966C22.8883 2.99966 21.6082 4.00005 21.6082 5.4877V5.51357C21.6082 7.1349 23.022 7.57473 24.7289 7.94556C25.9142 8.21722 26.2375 8.40264 26.2375 8.80797V8.82953C26.2375 9.23486 25.8495 9.46771 25.1685 9.46771C24.1816 9.4569 23.224 9.13053 22.4357 8.53631L21.2461 9.89029C22.3461 10.7338 23.701 11.1765 25.0866 11.1451C27.1426 11.1451 28.4185 10.1749 28.4185 8.60961" fill="#0D0D0D"/>
<path d="M36.0774 3.18945H28.8877V4.9962H31.4006V10.9511H33.5515V4.9962H36.0774V3.18945Z" fill="#0D0D0D"/>
<path d="M67.401 3.18945H65.332V10.9511H67.401V3.18945Z" fill="#0D0D0D"/>
<path d="M78.0645 7.07868V7.10455C78.0645 9.4158 80.0127 11.1536 82.5946 11.1536C83.8354 11.1677 85.0413 10.7432 85.9998 9.95481V6.50518H82.8964V7.95402H84.2326V9.04497L84.1938 9.07084C83.7339 9.31885 83.2157 9.43803 82.6938 9.4158C82.3792 9.42907 82.0652 9.37953 81.77 9.27006C81.4748 9.1606 81.2043 8.99342 80.9744 8.77826C80.7445 8.56311 80.5597 8.3043 80.4309 8.01693C80.302 7.72957 80.2317 7.41941 80.2239 7.10455V7.08299C80.2165 6.78834 80.2678 6.49515 80.375 6.2206C80.4822 5.94604 80.6431 5.69563 80.8482 5.48402C81.0533 5.27241 81.2985 5.10386 81.5695 4.98822C81.8405 4.87258 82.1319 4.81218 82.4265 4.81055C83.1639 4.7985 83.8806 5.05435 84.4438 5.53066L85.642 4.08613C84.7331 3.34832 83.5876 2.9653 82.4179 3.00812C79.9351 3.00812 78.0645 4.75881 78.0645 7.08299" fill="#0D0D0D"/>
<path d="M54.0263 10.9727V3.18945H51.9832V7.85939L51.9358 7.80333L48.1513 3.18945H46.2246V10.9727H48.272V6.29843L52.216 10.9727H54.0263Z" fill="#0D0D0D"/>
<path d="M63.5777 10.9727V3.18945H61.5346V7.85939L61.4872 7.80333L57.7027 3.18945H55.7803V10.9727H57.8234V6.29843L61.7673 10.9727H63.5777Z" fill="#0D0D0D"/>
<path d="M76.9488 10.9727V3.18945H74.9057V7.85939L74.8583 7.80333L71.0738 3.18945H69.1514V10.9727H71.1945V6.29843L75.1384 10.9727H76.9488Z" fill="#0D0D0D"/>
<path d="M19.3492 6.92787L13.7803 1.5292C13.7596 1.51041 13.7327 1.5 13.7048 1.5C13.6769 1.5 13.65 1.51041 13.6294 1.5292L10.4829 4.57349C10.4023 4.64897 10.2958 4.69064 10.1854 4.68992C10.0833 4.69113 9.98396 4.65598 9.90528 4.59074L6.75011 1.5292C6.73018 1.51071 6.70401 1.50044 6.67683 1.50044C6.64965 1.50044 6.62348 1.51071 6.60355 1.5292L1.03028 6.92787C1.01209 6.94708 1.00195 6.97255 1.00195 6.99901C1.00195 7.02548 1.01209 7.05094 1.03028 7.07016L6.60355 12.4688C6.61304 12.4786 6.62444 12.4864 6.63705 12.4916C6.64965 12.4968 6.6632 12.4993 6.67683 12.499C6.6905 12.4996 6.70412 12.4972 6.71677 12.4919C6.72942 12.4867 6.74079 12.4789 6.75011 12.4688L9.9139 9.40729C9.99145 9.343 10.089 9.30791 10.1898 9.30811C10.296 9.3072 10.3989 9.34559 10.4786 9.41591L13.6294 12.4688C13.6389 12.4786 13.6503 12.4864 13.6629 12.4916C13.6755 12.4968 13.6891 12.4993 13.7027 12.499C13.717 12.4996 13.7313 12.4973 13.7447 12.4921C13.758 12.4869 13.7701 12.479 13.7803 12.4688L19.3492 7.07016C19.3593 7.06126 19.3674 7.05031 19.3729 7.03804C19.3785 7.02578 19.3813 7.01247 19.3813 6.99901C19.3813 6.98555 19.3785 6.97225 19.3729 6.95998C19.3674 6.94772 19.3593 6.93677 19.3492 6.92787Z" fill="#0D0D0D"/>
</svg>
