<svg width="22" height="14" viewBox="0 0 22 14" fill="none" xmlns="http://www.w3.org/2000/svg">
<path d="M21.9876 6.94356L15.3053 0.0694135C15.2814 0.046114 15.2497 0.0331271 15.2167 0.0331271C15.1838 0.0331271 15.1521 0.046114 15.1282 0.0694135L11.371 3.9344C11.2742 4.01848 11.1516 4.0646 11.0248 4.0646C10.8981 4.0646 10.7755 4.01848 10.6787 3.9344L6.8947 0.0362865C6.87078 0.0129869 6.83908 0 6.80614 0C6.77319 0 6.7415 0.0129869 6.71758 0.0362865L0.0352738 6.91043C0.0126244 6.93504 0 6.96764 0 7.00153C0 7.03542 0.0126244 7.06803 0.0352738 7.09264L6.71758 13.9613C6.72812 13.974 6.74133 13.984 6.7562 13.9907C6.77108 13.9974 6.78724 14.0006 6.80346 13.9999C6.82043 14.0003 6.8373 13.997 6.853 13.9904C6.8687 13.9837 6.88289 13.9738 6.8947 13.9613L10.684 10.0632C10.7749 9.98201 10.8911 9.93696 11.0114 9.93616C11.1407 9.93921 11.2646 9.99019 11.3603 10.0797L15.1174 13.9447C15.128 13.9574 15.1412 13.9675 15.156 13.9742C15.1709 13.9809 15.1871 13.984 15.2033 13.9834C15.2203 13.9837 15.2371 13.9805 15.2528 13.9738C15.2685 13.9672 15.2827 13.9573 15.2945 13.9447L21.9769 7.07608C21.9898 7.05692 21.9977 7.03458 21.9996 7.01131C22.0014 6.98804 21.9973 6.96466 21.9876 6.94356Z" fill="#A6A6A6"/>
</svg>
