<svg width="54" height="10" viewBox="0 0 54 10" fill="none" xmlns="http://www.w3.org/2000/svg">
<path d="M11.1228 2.29381C9.085 2.29381 7.49255 3.76244 7.49255 5.63873V5.67653C7.49255 7.53662 9.0742 8.99715 11.0958 8.99715C13.1174 8.99715 14.7287 7.52852 14.7287 5.65223V5.62793C14.7287 3.75164 13.1444 2.29381 11.1228 2.29381ZM12.8907 5.67653C12.8979 5.90823 12.8566 6.13889 12.7696 6.35375C12.6826 6.5686 12.5517 6.76293 12.3853 6.92429C12.2189 7.08565 12.0207 7.21049 11.8033 7.29082C11.5859 7.37116 11.3541 7.40522 11.1228 7.39083C10.8895 7.39958 10.6569 7.36102 10.4389 7.27746C10.2209 7.19391 10.0221 7.0671 9.8544 6.90467C9.68671 6.74223 9.55361 6.54753 9.46313 6.33229C9.37265 6.11705 9.32666 5.88572 9.32791 5.65223V5.62793C9.32112 5.39634 9.36262 5.16587 9.44979 4.9512C9.53695 4.73654 9.66786 4.54238 9.83417 4.38111C10.0005 4.21984 10.1986 4.09498 10.4158 4.01449C10.633 3.93401 10.8646 3.89965 11.0958 3.91363C11.3291 3.90488 11.5617 3.94344 11.7797 4.027C11.9977 4.11055 12.1965 4.23736 12.3642 4.39979C12.5319 4.56223 12.665 4.75693 12.7554 4.97217C12.8459 5.18741 12.8919 5.41874 12.8907 5.65223V5.67653Z" fill="#0D0D0D"/>
<path d="M23.6924 2.2938C23.2528 2.28634 22.8162 2.36803 22.4091 2.53394C22.0019 2.69985 21.6326 2.94653 21.3234 3.25912C21.0141 3.5717 20.7714 3.94371 20.6098 4.35269C20.4483 4.76167 20.3712 5.19914 20.3833 5.63873V5.67652C20.3833 7.59871 21.8543 8.99715 23.8786 8.99715C24.395 9.01829 24.9095 8.92132 25.3828 8.71361C25.8562 8.50589 26.2759 8.19291 26.61 7.79848L26.6262 7.77959L25.5142 6.83469L25.498 6.84819C25.2899 7.05868 25.0412 7.22466 24.767 7.33604C24.4928 7.44743 24.1988 7.50189 23.9029 7.49612C23.0932 7.49612 22.5318 7.09386 22.3266 6.36494L22.3077 6.29475H26.9231V6.27315C26.9231 6.11657 26.9474 5.94109 26.9474 5.79531C26.9555 3.2063 25.1957 2.2938 23.6924 2.2938ZM22.2834 5.13658L22.2969 5.06639C22.4859 4.25648 23.0338 3.79753 23.803 3.79753C24.1628 3.787 24.5134 3.91175 24.7858 4.14715C25.0581 4.38255 25.2323 4.71151 25.274 5.06909V5.13658H22.2834Z" fill="#0D0D0D"/>
<path d="M35.6784 2.4045C33.6434 2.4045 32.0482 3.87313 32.0482 5.74942V5.78721C32.0482 7.6473 33.6326 9.10784 35.6542 9.10784C37.6757 9.10784 39.2844 7.6392 39.2844 5.76292V5.73862C39.2844 3.86233 37.7 2.4045 35.6784 2.4045ZM37.4463 5.78721C37.4535 6.01892 37.4123 6.24958 37.3253 6.46443C37.2383 6.67929 37.1074 6.87361 36.941 7.03497C36.7746 7.19633 36.5763 7.32117 36.3589 7.40151C36.1415 7.48185 35.9098 7.51591 35.6784 7.50152C35.4452 7.51027 35.2125 7.4717 34.9946 7.38815C34.7766 7.3046 34.5778 7.17779 34.4101 7.01535C34.2424 6.85292 34.1093 6.65822 34.0188 6.44298C33.9283 6.22774 33.8823 5.99641 33.8836 5.76292V5.73862C33.8768 5.50678 33.9183 5.27607 34.0057 5.06121C34.093 4.84635 34.2241 4.65206 34.3907 4.49075C34.5574 4.32943 34.7558 4.20463 34.9733 4.12432C35.1908 4.04401 35.4227 4.00995 35.6542 4.02431C35.8873 4.01556 36.1198 4.05413 36.3376 4.13771C36.5555 4.22129 36.7541 4.34815 36.9216 4.51062C37.0891 4.6731 37.2219 4.86782 37.3121 5.08305C37.4023 5.29828 37.448 5.52955 37.4463 5.76292V5.78721Z" fill="#0D0D0D"/>
<path d="M42.313 0.169144H40.3778V8.90536H42.313V0.169144Z" fill="#0D0D0D"/>
<path d="M45.7058 2.84184H43.7841V8.90536H45.7058V2.84184Z" fill="#0D0D0D"/>
<path d="M50.3967 2.29381C48.3589 2.29381 46.7665 3.76244 46.7665 5.63873V5.67653C46.7665 7.53662 48.3481 8.99715 50.3697 8.99715C52.3913 8.99715 54 7.52852 54 5.65223V5.62793C54 3.75164 52.4183 2.29381 50.3967 2.29381ZM52.1646 5.67653C52.1718 5.90823 52.1306 6.13889 52.0436 6.35375C51.9565 6.5686 51.8256 6.76293 51.6592 6.92429C51.4928 7.08565 51.2946 7.21049 51.0772 7.29082C50.8598 7.37116 50.628 7.40522 50.3967 7.39083C50.1634 7.39958 49.9308 7.36102 49.7128 7.27746C49.4948 7.19391 49.296 7.0671 49.1283 6.90467C48.9606 6.74223 48.8275 6.54753 48.7371 6.33229C48.6466 6.11705 48.6006 5.88572 48.6018 5.65223V5.62793C48.5946 5.39623 48.6359 5.16557 48.7229 4.95071C48.8099 4.73585 48.9408 4.54153 49.1072 4.38017C49.2736 4.21881 49.4718 4.09397 49.6892 4.01364C49.9066 3.9333 50.1384 3.89924 50.3697 3.91363C50.603 3.90488 50.8356 3.94344 51.0536 4.027C51.2716 4.11055 51.4704 4.23736 51.6381 4.39979C51.8058 4.56223 51.9389 4.75693 52.0294 4.97217C52.1199 5.18741 52.1658 5.41874 52.1646 5.65223V5.67653Z" fill="#0D0D0D"/>
<path d="M18.2321 7.10197L18.197 7.05337C18.1188 6.89721 18.0842 6.72275 18.0972 6.54853V4.07291H19.4764V2.54758H18.0972V0.817078H16.3212V2.54758H15.2416V4.07291H16.3212V7.04258C16.3212 8.39242 16.8745 8.98366 18.1782 8.98366C18.6917 9.01212 19.2048 8.91965 19.6761 8.71369V7.18026C18.8799 7.35574 18.3887 7.32874 18.2321 7.10197Z" fill="#0D0D0D"/>
<path d="M30.44 0.00716478C30.1589 -0.00282185 29.8786 0.0436348 29.6158 0.143791C29.353 0.243947 29.1128 0.395772 28.9096 0.590299C28.5534 0.93316 28.3698 1.4596 28.3698 2.15342V2.54758H27.4062V4.07291H28.3698V8.91616H30.2592V4.07291H31.8138V2.55028H30.2376V2.25601C30.2376 1.88615 30.4724 1.64858 30.9042 1.58919C31.2127 1.55797 31.5242 1.57528 31.8273 1.64048V0.161047H31.8111C31.3662 0.031661 30.9025 -0.0203889 30.44 0.00716478Z" fill="#0D0D0D"/>
<path d="M44.7422 1.99954C45.2863 1.99954 45.7274 1.55837 45.7274 1.01415C45.7274 0.469937 45.2863 0.0287628 44.7422 0.0287628C44.1981 0.0287628 43.7571 0.469937 43.7571 1.01415C43.7571 1.55837 44.1981 1.99954 44.7422 1.99954Z" fill="#0D0D0D"/>
<path d="M3.81376 2.16692C3.16934 2.14029 2.53781 2.35277 2.04049 2.76355L1.94872 2.84454V2.3694H0V8.91616H1.94872V5.40655C1.93221 5.2114 1.95577 5.01493 2.01797 4.82923C2.08017 4.64352 2.17968 4.4725 2.31039 4.32668C2.57422 4.07614 2.92646 3.94026 3.29015 3.94872C3.63849 3.94079 3.97855 4.05544 4.25101 4.27268C4.36288 4.38556 4.4494 4.521 4.50478 4.66997C4.56017 4.81895 4.58315 4.97802 4.5722 5.13658V8.91616H6.5614V4.92331C6.58094 4.55527 6.52385 4.18719 6.39376 3.84237C6.26367 3.49755 6.06341 3.18351 5.80567 2.92013C5.26172 2.42468 4.54937 2.15531 3.81376 2.16692Z" fill="#0D0D0D"/>
</svg>
