<svg xmlns="http://www.w3.org/2000/svg" width="32" height="32" viewBox="0 0 32 32">
  <g fill="none" fill-rule="evenodd">
    <rect width="32" height="32"/>
    <path fill="#1FA1F2" d="M12.2880452,24 C19.8374647,24 23.9667399,17.8431453 23.9667399,12.5076162 C23.9667399,12.3347056 23.9667399,12.1617949 23.9541889,11.9827088 C24.7574521,11.4083984 25.4477565,10.704405 26,9.88925473 C25.2532162,10.2165499 24.4562284,10.4326882 23.6404142,10.525319 C24.5001569,10.0189377 25.1402573,9.22848898 25.4477565,8.28983109 C24.6444933,8.75916003 23.7596486,9.0926306 22.8434264,9.27171665 C21.2871039,7.64759148 18.6890493,7.56731153 17.0385943,9.09880598 C15.9717603,10.0868669 15.5199247,11.5566076 15.8525259,12.958419 C12.5516159,12.7978591 9.47662378,11.2601893 7.39315971,8.74063389 C6.30122372,10.5870728 6.8597427,12.9460683 8.66080954,14.1317414 C8.00815814,14.1132152 7.36805773,13.9403046 6.79698776,13.6253602 L6.79698776,13.6747632 C6.79698776,15.5953066 8.17759649,17.2503087 10.0916222,17.6331823 C9.48917477,17.7937422 8.85534986,17.8184438 8.24035143,17.7011115 C8.78004393,19.3437628 10.31754,20.4738575 12.0746784,20.5047344 C10.6187637,21.6286537 8.82397239,22.2400165 6.97897709,22.2400165 C6.6526514,22.2400165 6.3263257,22.2214903 6,22.184438 C7.87009727,23.3701112 10.0539693,24 12.2880452,24"/>
  </g>
</svg>
